<svg xmlns="http://www.w3.org/2000/svg" viewBox="0 0 512 512" role="img" aria-labelledby="title desc">
  <title id="title">ARES logo</title>
  <desc id="desc">Gold ARES A mark on a navy shield medallion.</desc>
  <defs>
    <radialGradient id="navy" cx="50%" cy="42%" r="64%">
      <stop offset="0%" stop-color="#102946"/>
      <stop offset="62%" stop-color="#071b30"/>
      <stop offset="100%" stop-color="#041222"/>
    </radialGradient>
    <linearGradient id="gold" x1="22%" y1="10%" x2="78%" y2="92%">
      <stop offset="0%" stop-color="#fff0a6"/>
      <stop offset="22%" stop-color="#f7c948"/>
      <stop offset="58%" stop-color="#c88a20"/>
      <stop offset="100%" stop-color="#ffe083"/>
    </linearGradient>
    <linearGradient id="goldDark" x1="50%" y1="0%" x2="50%" y2="100%">
      <stop offset="0%" stop-color="#a96e12"/>
      <stop offset="100%" stop-color="#f7c948"/>
    </linearGradient>
    <filter id="shadow" x="-20%" y="-20%" width="140%" height="140%">
      <feDropShadow dx="0" dy="10" stdDeviation="10" flood-color="#000" flood-opacity=".32"/>
    </filter>
  </defs>
  <circle cx="256" cy="256" r="238" fill="url(#navy)" stroke="url(#gold)" stroke-width="18"/>
  <circle cx="256" cy="256" r="218" fill="none" stroke="#6f4a13" stroke-width="4" opacity=".7"/>
  <path d="M256 78 403 414 318 363 256 213 194 363 109 414Z" fill="url(#gold)" filter="url(#shadow)"/>
  <path d="M256 78 256 213 318 363 403 414Z" fill="#ffe083" opacity=".18"/>
  <path d="M205 300 256 270 307 300 307 354 256 326 205 354Z" fill="url(#goldDark)" stroke="#ffe083" stroke-width="6"/>
  <path d="M221 386 256 404 291 386 291 450 256 472 221 450Z" fill="url(#gold)" stroke="#8d5c13" stroke-width="5"/>
  <path d="M151 394 256 131 361 394 322 369 256 210 190 369Z" fill="none" stroke="#fff2ad" stroke-width="7" opacity=".9"/>
</svg>
